<?xml version="1.0" encoding="UTF-8"?>
<svg id="Layer_2" data-name="Layer 2" xmlns="http://www.w3.org/2000/svg" viewBox="0 0 300 300">
  <defs>
    <style>
      .cls-1 {
        fill: #fff;
        opacity: 0;
      }

      .cls-2 {
        fill: #b29139;
      }

      .cls-3 {
        fill: #fecd49;
      }

      .cls-4 {
        fill: #66562a;
      }

      .cls-5 {
        fill: #8c7331;
      }

      .cls-6 {
        fill: #403822;
      }

      .cls-7 {
        fill: #d8af41;
      }
    </style>
  </defs>
  <g id="Layer_1-2" data-name="Layer 1">
    <g>
      <g>
        <path class="cls-6" d="m238.83,151.49c-.8,47.96-39.52,86.68-87.48,87.48l-51.41,51.41c15.65,5.58,32.5,8.63,50.06,8.63.51,0,1.02-.01,1.53-.02l147.45-147.45c0-.51.02-1.02.02-1.53,0-17.57-3.05-34.42-8.63-50.06l-51.55,51.55Z"/>
        <path class="cls-1" d="m150,300c-17.28,0-34.24-2.92-50.4-8.69l-1.48-.53,52.8-52.8h.4c47.71-.8,85.71-38.8,86.5-86.51v-.4s52.95-52.95,52.95-52.95l.53,1.48c5.76,16.16,8.69,33.12,8.69,50.4,0,.32,0,.64-.01.96v.99s-148.04,148.03-148.04,148.03h-.99c-.32.02-.64.02-.96.02Zm-48.24-10.04c15.5,5.34,31.72,8.05,48.24,8.05.31,0,.62,0,.93-.01h.19s146.88-146.89,146.88-146.89v-.19c0-.31.01-.62.01-.93,0-16.52-2.71-32.74-8.05-48.24l-50.15,50.15c-.49,23.3-9.83,45.21-26.34,61.71-16.5,16.5-38.41,25.85-61.71,26.34l-50.01,50.01Z"/>
      </g>
      <g>
        <path class="cls-4" d="m238.84,149.98c0,.5-.01,1.01-.02,1.51l51.55-51.55c-5.05-14.17-12.18-27.35-21.04-39.17l-43.26,43.26c8.1,13.41,12.77,29.14,12.77,45.95Z"/>
        <path class="cls-1" d="m237.79,153.93l.05-2.73c0-.4.01-.81.01-1.21,0-16.05-4.36-31.77-12.62-45.44l-.4-.67,44.62-44.62.69.92c9.01,12.03,16.13,25.3,21.18,39.43l.21.59-53.73,53.73Zm-10.46-49.74c8.03,13.57,12.35,29.05,12.5,44.89l49.4-49.4c-4.83-13.37-11.56-25.94-20-37.4l-41.9,41.9Z"/>
      </g>
      <g>
        <path class="cls-4" d="m149.83,238.99c-16.81,0-32.54-4.66-45.95-12.77l-43.12,43.12c11.82,8.85,25,15.98,39.17,21.04l51.41-51.41c-.5,0-1,.02-1.51.02Z"/>
        <path class="cls-1" d="m100.2,291.52l-.59-.21c-14.14-5.04-27.4-12.17-39.43-21.18l-.92-.69,44.48-44.48.67.4c13.67,8.26,29.38,12.62,45.44,12.62.41,0,.81,0,1.21-.01l2.73-.05-53.59,53.59Zm-37.91-22.29c11.46,8.44,24.03,15.17,37.4,20l49.25-49.25c-15.84-.16-31.33-4.47-44.89-12.5l-41.76,41.76Z"/>
      </g>
      <g>
        <path class="cls-5" d="m226.08,104.03l43.26-43.26c-8.55-11.41-18.69-21.56-30.1-30.1l-43.21,43.21c12.29,7.47,22.62,17.84,30.06,30.15Z"/>
        <path class="cls-1" d="m225.88,105.63l-.66-1.09c-7.33-12.14-17.61-22.45-29.72-29.82l-1.08-.66,44.72-44.72.69.52c11.5,8.61,21.69,18.81,30.3,30.3l.52.69-44.77,44.77Zm-28.27-31.94c11.56,7.26,21.43,17.16,28.65,28.74l41.76-41.76c-8.21-10.84-17.86-20.49-28.7-28.7l-41.72,41.72Z"/>
      </g>
      <g>
        <path class="cls-5" d="m73.73,196.17l-43.07,43.07c8.55,11.41,18.69,21.56,30.1,30.1l43.12-43.12c-12.31-7.44-22.68-17.77-30.15-30.06Z"/>
        <path class="cls-1" d="m60.86,270.65l-.69-.52c-11.5-8.61-21.69-18.81-30.3-30.3l-.52-.69,44.57-44.57.66,1.08c7.37,12.11,17.68,22.39,29.82,29.72l1.09.66-44.62,44.62Zm-28.88-31.32c8.21,10.84,17.86,20.49,28.7,28.7l41.62-41.61c-11.59-7.22-21.49-17.09-28.74-28.65l-41.57,41.57Z"/>
      </g>
      <g>
        <path class="cls-2" d="m149.83,60.97c16.91,0,32.72,4.72,46.19,12.91l43.21-43.21c-11.82-8.85-25-15.98-39.17-21.04l-51.36,51.36c.37,0,.75-.01,1.12-.01Z"/>
        <path class="cls-1" d="m196.17,75.13l-.67-.41c-13.73-8.35-29.52-12.76-45.67-12.76-.24,0-.47,0-.71,0l-2.84.03,53.52-53.52.59.21c14.14,5.04,27.4,12.17,39.43,21.18l.92.69-44.58,44.58Zm-45.06-15.15c15.81.22,31.24,4.58,44.76,12.64l41.85-41.85c-11.46-8.44-24.03-15.17-37.4-20l-49.21,49.21Z"/>
      </g>
      <g>
        <path class="cls-2" d="m60.82,149.98c0-.38,0-.75.01-1.12l-51.21,51.21c5.05,14.17,12.18,27.35,21.04,39.17l43.07-43.07c-8.19-13.47-12.91-29.28-12.91-46.19Z"/>
        <path class="cls-1" d="m30.56,240.75l-.69-.92c-9.01-12.03-16.13-25.3-21.18-39.43l-.21-.59,53.38-53.38-.03,2.84c0,.24,0,.47,0,.71,0,16.15,4.41,31.95,12.76,45.67l.41.67-44.43,44.43Zm-19.78-40.43c4.83,13.37,11.56,25.94,20,37.4l41.71-41.71c-8.06-13.52-12.42-28.95-12.64-44.76l-49.06,49.06Z"/>
      </g>
      <g>
        <path class="cls-7" d="m148.71,60.98l51.36-51.36c-15.65-5.58-32.5-8.63-50.06-8.63-.51,0-1.02.01-1.53.02L1.02,148.47c0,.51-.02,1.02-.02,1.53,0,17.57,3.05,34.42,8.63,50.06l51.21-51.21c.6-48.27,39.61-87.27,87.87-87.87Z"/>
        <path class="cls-1" d="m9.22,201.88l-.53-1.48C2.93,184.24,0,167.28,0,150c0-.32,0-.64.01-.96v-.99S148.05.03,148.05.03h.99c.32-.02.64-.02.96-.02,17.28,0,34.24,2.92,50.4,8.69l1.48.53-52.75,52.75h-.4c-48.13.6-86.29,38.77-86.89,86.9v.4s-.29.29-.29.29l-52.32,52.32Zm-7.22-52.99v.19c0,.31-.01.62-.01.93,0,16.52,2.71,32.74,8.05,48.24l49.81-49.81c.39-23.45,9.74-45.49,26.35-62.1,16.6-16.6,38.64-25.95,62.1-26.35l49.95-49.95c-15.5-5.34-31.72-8.05-48.24-8.05-.31,0-.62,0-.93.01h-.19S2.01,148.89,2.01,148.89Z"/>
      </g>
      <g>
        <path class="cls-3" d="m1.02,148.47L148.47,1.02C67.4,1.84,1.84,67.4,1.02,148.47Z"/>
        <path class="cls-1" d="m0,150.89l.02-2.43c.4-39.47,16-76.59,43.92-104.51C71.87,16.02,108.99.42,148.46.02l2.43-.02L0,150.89ZM146.03,2.06C68,4.15,4.15,68,2.06,146.03L146.03,2.06Z"/>
      </g>
    </g>
  </g>
</svg>