<?xml version="1.0" encoding="UTF-8"?>
<svg id="Layer_2" data-name="Layer 2" xmlns="http://www.w3.org/2000/svg" viewBox="0 0 758.12 200">
  <defs>
    <style>
      .cls-1 {
        fill: #a69979;
      }

      .cls-2 {
        fill: #3d3a32;
      }

      .cls-3 {
        fill: #605a49;
      }

      .cls-4 {
        fill: #837a61;
      }

      .cls-5 {
        fill: #ecd9a8;
      }

      .cls-6 {
        fill: #ccc;
      }

      .cls-7 {
        fill: #c9b990;
      }
    </style>
  </defs>
  <g id="Layer_1-2" data-name="Layer 1">
    <g>
      <path class="cls-2" d="m159.57,101.99c-1.04,31.4-26.29,56.65-57.68,57.68l-34.78,34.78c10.3,3.59,21.37,5.55,32.9,5.55.34,0,.69,0,1.03-.01l98.96-98.96c0-.34.01-.68.01-1.03,0-11.53-1.96-22.59-5.55-32.9l-34.88,34.88Z"/>
      <path class="cls-3" d="m159.62,99.98c0,.34,0,.67-.01,1.01l34.6-34.6c-3.35-9.38-8.05-18.11-13.88-25.96l-29.06,29.06c5.31,8.92,8.36,19.34,8.36,30.48Z"/>
      <path class="cls-3" d="m99.89,159.72c-11.14,0-21.56-3.05-30.48-8.36l-28.97,28.97c7.85,5.83,16.58,10.53,25.96,13.88l34.5-34.5c-.34,0-.67.01-1.01.01Z"/>
      <path class="cls-4" d="m150.91,68.91l29.01-29.01c-5.57-7.39-12.14-13.98-19.5-19.57l-28.95,28.95c7.91,4.94,14.58,11.67,19.44,19.63Z"/>
      <path class="cls-4" d="m49.18,131.56l-28.86,28.86c5.6,7.37,12.18,13.94,19.57,19.5l28.92-28.92c-7.96-4.86-14.7-11.53-19.63-19.44Z"/>
      <path class="cls-1" d="m99.89,40.25c11.35,0,21.96,3.17,31,8.66l29-29c-7.83-5.86-16.55-10.59-25.91-13.97l-34.32,34.32c.08,0,.16,0,.23,0Z"/>
      <path class="cls-1" d="m40.15,99.98c0-.08,0-.16,0-.23L5.93,133.97c3.38,9.37,8.11,18.09,13.98,25.91l28.9-28.9c-5.5-9.04-8.66-19.65-8.66-31Z"/>
      <path class="cls-7" d="m98.68,40.27L133.28,5.68c-10.41-3.67-21.61-5.68-33.28-5.68-.16,0-.31,0-.47,0L0,99.53c0,.16,0,.31,0,.47,0,11.67,2.01,22.87,5.68,33.28l34.5-34.5c.64-32.03,26.47-57.87,58.5-58.5Z"/>
      <path class="cls-5" d="m.02,98.57L98.57.02C44.48.78.78,44.48.02,98.57Z"/>
    </g>
    <g>
      <path class="cls-6" d="m240.31,130.89V58.09h11.02v31.2h38.58v-31.2h11.02v72.8h-11.02v-31.72h-38.58v31.72h-11.02Z"/>
      <path class="cls-6" d="m315.71,130.89V58.09h53.77v9.57h-42.74v21.84h27.98v9.36h-27.98v22.46h43.16v9.57h-54.18Z"/>
      <path class="cls-6" d="m381.02,130.89V58.09h11.02v72.8h-11.02Z"/>
      <path class="cls-6" d="m406.81,130.89V58.09h14.66l22.78,46.49,22.78-46.49h14.56v72.8h-10.3v-59.38l-27.14,54.18-27.14-54.18v59.38h-10.19Z"/>
      <path class="cls-6" d="m496.46,130.89V58.09h25.69c5.55,0,10.64.92,15.29,2.76,4.64,1.84,8.68,4.39,12.12,7.64,3.43,3.26,6.12,7.11,8.06,11.54,1.94,4.44,2.91,9.29,2.91,14.56s-.95,10-2.86,14.4c-1.91,4.4-4.59,8.23-8.06,11.49-3.47,3.26-7.52,5.81-12.17,7.64-4.65,1.84-9.74,2.76-15.29,2.76h-25.69Zm11.02-9.88h14.87c3.81,0,7.35-.66,10.61-1.98,3.26-1.32,6.12-3.17,8.58-5.56,2.46-2.39,4.37-5.2,5.72-8.42,1.35-3.22,2.03-6.71,2.03-10.45s-.68-7.33-2.03-10.56c-1.35-3.22-3.26-6.05-5.72-8.48-2.46-2.43-5.32-4.3-8.58-5.62-3.26-1.32-6.8-1.98-10.61-1.98h-14.87v53.04Z"/>
      <path class="cls-6" d="m561.25,130.89l30.06-72.8h12.9l29.85,72.8h-11.96l-8.42-21.32h-32.55l-8.53,21.32h-11.34Zm23.5-30.37h25.38l-12.69-31.93-12.69,31.93Z"/>
      <path class="cls-6" d="m641.43,130.89V58.09h11.02v63.02h41.81v9.78h-52.83Z"/>
      <path class="cls-6" d="m705.29,130.89V58.09h11.02v63.02h41.81v9.78h-52.83Z"/>
    </g>
  </g>
</svg>