<?xml version="1.0" encoding="UTF-8"?>
<svg id="Layer_2" data-name="Layer 2" xmlns="http://www.w3.org/2000/svg" viewBox="0 0 770.6 200">
  <defs>
    <style>
      .cls-1 {
        fill: #a69979;
      }

      .cls-2 {
        fill: #3d3a32;
      }

      .cls-3 {
        fill: #605a49;
      }

      .cls-4 {
        fill: #837a61;
      }

      .cls-5 {
        fill: #ecd9a8;
      }

      .cls-6 {
        fill: #ccc;
      }

      .cls-7 {
        fill: #c9b990;
      }
    </style>
  </defs>
  <g id="Layer_1-2" data-name="Layer 1">
    <g>
      <path class="cls-2" d="m159.57,101.99c-1.04,31.4-26.29,56.65-57.68,57.68l-34.78,34.78c10.3,3.59,21.37,5.55,32.9,5.55.34,0,.69,0,1.03-.01l98.96-98.96c0-.34.01-.68.01-1.03,0-11.53-1.96-22.59-5.55-32.9l-34.88,34.88Z"/>
      <path class="cls-3" d="m159.62,99.98c0,.34,0,.67-.01,1.01l34.6-34.6c-3.35-9.38-8.05-18.11-13.88-25.96l-29.06,29.06c5.31,8.92,8.36,19.34,8.36,30.48Z"/>
      <path class="cls-3" d="m99.89,159.72c-11.14,0-21.56-3.05-30.48-8.36l-28.97,28.97c7.85,5.83,16.58,10.53,25.96,13.88l34.5-34.5c-.34,0-.67.01-1.01.01Z"/>
      <path class="cls-4" d="m150.91,68.91l29.01-29.01c-5.57-7.39-12.14-13.98-19.5-19.57l-28.95,28.95c7.91,4.94,14.58,11.67,19.44,19.63Z"/>
      <path class="cls-4" d="m49.18,131.56l-28.86,28.86c5.6,7.37,12.18,13.94,19.57,19.5l28.92-28.92c-7.96-4.86-14.7-11.53-19.63-19.44Z"/>
      <path class="cls-1" d="m99.89,40.25c11.35,0,21.96,3.17,31,8.66l29-29c-7.83-5.86-16.55-10.59-25.91-13.97l-34.32,34.32c.08,0,.16,0,.23,0Z"/>
      <path class="cls-1" d="m40.15,99.98c0-.08,0-.16,0-.23L5.93,133.97c3.38,9.37,8.11,18.09,13.98,25.91l28.9-28.9c-5.5-9.04-8.66-19.65-8.66-31Z"/>
      <path class="cls-7" d="m98.68,40.27L133.28,5.68c-10.41-3.67-21.61-5.68-33.28-5.68-.16,0-.31,0-.47,0L0,99.53c0,.16,0,.31,0,.47,0,11.67,2.01,22.87,5.68,33.28l34.5-34.5c.64-32.03,26.47-57.87,58.5-58.5Z"/>
      <path class="cls-5" d="m.02,98.57L98.57.02C44.48.78.78,44.48.02,98.57Z"/>
    </g>
    <g>
      <path class="cls-6" d="m240,130.89V58.09h12.79v30.26h36.3v-30.26h12.9v72.8h-12.9v-30.78h-36.3v30.78h-12.79Z"/>
      <path class="cls-6" d="m316.85,130.89V58.09h54.71v11.23h-41.91v19.34h27.56v10.92h-27.56v20.07h42.33v11.23h-55.12Z"/>
      <path class="cls-6" d="m383.83,130.89V58.09h12.79v72.8h-12.79Z"/>
      <path class="cls-6" d="m411.59,130.89V58.09h16.74l21.53,43.16,21.42-43.16h16.74v72.8h-12.06v-56.78l-26.31,51.58-26.21-51.58v56.78h-11.86Z"/>
      <path class="cls-6" d="m503.01,130.89V58.09h26.73c5.48,0,10.54.92,15.18,2.76,4.64,1.84,8.7,4.4,12.17,7.7,3.47,3.29,6.17,7.16,8.11,11.6,1.94,4.44,2.91,9.26,2.91,14.46s-.97,10-2.91,14.4c-1.94,4.4-4.65,8.23-8.11,11.49-3.47,3.26-7.52,5.81-12.17,7.64-4.65,1.84-9.71,2.76-15.18,2.76h-26.73Zm12.79-11.44h13.94c3.54,0,6.83-.62,9.88-1.87,3.05-1.25,5.72-3.02,8.01-5.3,2.29-2.29,4.07-4.92,5.36-7.9,1.28-2.98,1.92-6.24,1.92-9.78s-.64-6.83-1.92-9.88c-1.28-3.05-3.07-5.7-5.36-7.96-2.29-2.25-4.96-4.02-8.01-5.3-3.05-1.28-6.34-1.92-9.88-1.92h-13.94v49.92Z"/>
      <path class="cls-6" d="m569.15,130.89l29.95-72.8h14.98l29.74,72.8h-13.94l-8.01-20.28h-31.41l-8.01,20.28h-13.31Zm25.48-30.78h23.3l-11.65-29.54-11.65,29.54Z"/>
      <path class="cls-6" d="m651.52,130.89V58.09h12.79v61.36h40.98v11.44h-53.77Z"/>
      <path class="cls-6" d="m716.83,130.89V58.09h12.79v61.36h40.98v11.44h-53.77Z"/>
    </g>
  </g>
</svg>