<?xml version="1.0" encoding="UTF-8"?>
<svg id="Layer_2" data-name="Layer 2" xmlns="http://www.w3.org/2000/svg" viewBox="0 0 882.78 200">
  <defs>
    <style>
      .cls-1 {
        fill: #a69979;
      }

      .cls-2, .cls-3, .cls-4 {
        fill: #3d3a32;
      }

      .cls-5 {
        fill: #605a49;
      }

      .cls-3 {
        font-size: 77.62px;
        letter-spacing: 0em;
      }

      .cls-3, .cls-4 {
        font-family: RedHatDisplay-Bold, 'Red Hat Display';
        font-variation-settings: 'wght' 700;
        font-weight: 700;
      }

      .cls-6 {
        letter-spacing: 0em;
      }

      .cls-7 {
        fill: #837a61;
      }

      .cls-8 {
        fill: #ecd9a8;
      }

      .cls-9 {
        fill: #c9b990;
      }

      .cls-4 {
        font-size: 104px;
      }

      .cls-10 {
        letter-spacing: -.03em;
      }
    </style>
  </defs>
  <g id="Layer_1-2" data-name="Layer 1">
    <g>
      <path class="cls-2" d="m159.57,101.99c-1.04,31.4-26.29,56.65-57.68,57.68l-34.78,34.78c10.3,3.59,21.37,5.55,32.9,5.55.34,0,.69,0,1.03-.01l98.96-98.96c0-.34.01-.68.01-1.03,0-11.53-1.96-22.59-5.55-32.9l-34.88,34.88Z"/>
      <path class="cls-5" d="m159.62,99.98c0,.34,0,.67-.01,1.01l34.6-34.6c-3.35-9.38-8.05-18.11-13.88-25.96l-29.06,29.06c5.31,8.92,8.36,19.34,8.36,30.48Z"/>
      <path class="cls-5" d="m99.89,159.72c-11.14,0-21.56-3.05-30.48-8.36l-28.97,28.97c7.85,5.83,16.58,10.53,25.96,13.88l34.5-34.5c-.34,0-.67.01-1.01.01Z"/>
      <path class="cls-7" d="m150.91,68.91l29.01-29.01c-5.57-7.39-12.14-13.98-19.5-19.57l-28.95,28.95c7.91,4.94,14.58,11.67,19.44,19.63Z"/>
      <path class="cls-7" d="m49.18,131.56l-28.86,28.86c5.6,7.37,12.18,13.94,19.57,19.5l28.92-28.92c-7.96-4.86-14.7-11.53-19.63-19.44Z"/>
      <path class="cls-1" d="m99.89,40.25c11.35,0,21.96,3.17,31,8.66l29-29c-7.83-5.86-16.55-10.59-25.91-13.97l-34.32,34.32c.08,0,.16,0,.23,0Z"/>
      <path class="cls-1" d="m40.15,99.98c0-.08,0-.16,0-.23L5.93,133.97c3.38,9.37,8.11,18.09,13.98,25.91l28.9-28.9c-5.5-9.04-8.66-19.65-8.66-31Z"/>
      <path class="cls-9" d="m98.68,40.27L133.28,5.68c-10.41-3.67-21.61-5.68-33.28-5.68-.16,0-.31,0-.47,0L0,99.53c0,.16,0,.31,0,.47,0,11.67,2.01,22.87,5.68,33.28l34.5-34.5c.64-32.03,26.47-57.87,58.5-58.5Z"/>
      <path class="cls-8" d="m.02,98.57L98.57.02C44.48.78.78,44.48.02,98.57Z"/>
    </g>
    <text class="cls-4" transform="translate(220.92 128.89)"><tspan class="cls-6" x="0" y="0">HEIM</tspan><tspan class="cls-10" x="263.01" y="0">D</tspan><tspan class="cls-6" x="336.33" y="0">ALL</tspan></text>
    <text class="cls-3" transform="translate(762.78 128.37)"><tspan x="0" y="0">QC</tspan></text>
  </g>
</svg>