<?xml version="1.0" encoding="UTF-8"?>
<svg id="Layer_2" data-name="Layer 2" xmlns="http://www.w3.org/2000/svg" viewBox="0 0 202.05 181.13">
  <defs>
    <style>
      .cls-1 {
        fill: #a69979;
      }

      .cls-2 {
        fill: #3d3a32;
      }

      .cls-3 {
        fill: #605a49;
      }

      .cls-4 {
        fill: #837a61;
      }

      .cls-5 {
        fill: #ecd9a8;
      }

      .cls-6 {
        fill: #ccc;
      }

      .cls-7 {
        fill: #c9b990;
      }
    </style>
  </defs>
  <g id="Layer_1-2" data-name="Layer 1">
    <g>
      <path class="cls-2" d="m141.25,71.39c-.73,21.98-18.4,39.65-40.38,40.38l-24.35,24.35c7.21,2.51,14.96,3.88,23.03,3.88.24,0,.48,0,.72,0l69.27-69.27c0-.24,0-.48,0-.72,0-8.07-1.37-15.81-3.88-23.03l-24.42,24.42Z"/>
      <path class="cls-3" d="m141.29,69.99c0,.24,0,.47,0,.71l24.22-24.22c-2.34-6.56-5.64-12.68-9.72-18.17l-20.34,20.34c3.71,6.25,5.85,13.54,5.85,21.34Z"/>
      <path class="cls-3" d="m99.47,111.81c-7.8,0-15.09-2.14-21.34-5.85l-20.28,20.28c5.49,4.08,11.61,7.37,18.17,9.72l24.15-24.15c-.24,0-.47,0-.71,0Z"/>
      <path class="cls-4" d="m135.19,48.24l20.31-20.31c-3.9-5.17-8.5-9.79-13.65-13.7l-20.27,20.27c5.54,3.46,10.21,8.17,13.61,13.74Z"/>
      <path class="cls-4" d="m63.98,92.09l-20.2,20.2c3.92,5.16,8.53,9.76,13.7,13.65l20.24-20.24c-5.57-3.4-10.29-8.07-13.74-13.61Z"/>
      <path class="cls-1" d="m99.47,28.17c7.94,0,15.37,2.22,21.7,6.06l20.3-20.3c-5.48-4.1-11.58-7.41-18.14-9.78l-24.02,24.02c.05,0,.11,0,.16,0Z"/>
      <path class="cls-1" d="m57.66,69.99c0-.05,0-.11,0-.16l-23.95,23.95c2.37,6.56,5.68,12.66,9.78,18.14l20.23-20.23c-3.85-6.33-6.06-13.75-6.06-21.7Z"/>
      <path class="cls-7" d="m98.63,28.19L122.85,3.98c-7.29-2.57-15.13-3.98-23.29-3.98-.11,0-.22,0-.33,0L29.56,69.67c0,.11,0,.22,0,.33,0,8.17,1.4,16.01,3.98,23.29l24.15-24.15c.45-22.42,18.53-40.51,40.95-40.95Z"/>
      <path class="cls-5" d="m29.57,69L98.55.02C60.69.55,30.1,31.13,29.57,69Z"/>
    </g>
    <g>
      <path class="cls-6" d="m0,180.63v-22.4h3.93v9.31h11.17v-9.31h3.97v22.4h-3.97v-9.47H3.93v9.47H0Z"/>
      <path class="cls-6" d="m23.64,180.63v-22.4h16.83v3.46h-12.89v5.95h8.48v3.36h-8.48v6.17h13.02v3.46h-16.96Z"/>
      <path class="cls-6" d="m44.25,180.63v-22.4h3.93v22.4h-3.93Z"/>
      <path class="cls-6" d="m52.79,180.63v-22.4h5.15l6.62,13.28,6.59-13.28h5.15v22.4h-3.71v-17.47l-8.09,15.87-8.06-15.87v17.47h-3.65Z"/>
      <path class="cls-6" d="m80.91,180.63v-22.4h8.22c1.68,0,3.24.28,4.67.85s2.68,1.35,3.74,2.37,1.9,2.2,2.5,3.57c.6,1.37.9,2.85.9,4.45s-.3,3.08-.9,4.43c-.6,1.35-1.43,2.53-2.5,3.54-1.07,1-2.31,1.79-3.74,2.35s-2.99.85-4.67.85h-8.22Zm3.93-3.52h4.29c1.09,0,2.1-.19,3.04-.58.94-.38,1.76-.93,2.46-1.63s1.25-1.51,1.65-2.43.59-1.92.59-3.01-.2-2.1-.59-3.04c-.39-.94-.94-1.75-1.65-2.45-.7-.69-1.53-1.24-2.46-1.63-.94-.39-1.95-.59-3.04-.59h-4.29v15.36Z"/>
      <path class="cls-6" d="m101.26,180.63l9.21-22.4h4.61l9.15,22.4h-4.29l-2.46-6.24h-9.66l-2.46,6.24h-4.1Zm7.84-9.47h7.17l-3.58-9.09-3.58,9.09Z"/>
      <path class="cls-6" d="m126.6,180.63v-22.4h3.93v18.88h12.61v3.52h-16.54Z"/>
      <path class="cls-6" d="m146.69,180.63v-22.4h3.93v18.88h12.61v3.52h-16.54Z"/>
    </g>
    <g>
      <path class="cls-6" d="m180.77,181.13l-1.15-1.39c-.59.3-1.22.54-1.9.72-.68.17-1.39.26-2.14.26-1.23,0-2.37-.22-3.44-.66-1.07-.44-2-1.05-2.79-1.84s-1.42-1.7-1.86-2.75c-.45-1.04-.67-2.17-.67-3.38s.22-2.34.67-3.38c.45-1.04,1.07-1.96,1.86-2.75.8-.79,1.73-1.4,2.79-1.84s2.21-.66,3.44-.66,2.37.22,3.43.66,1.99,1.05,2.79,1.84c.8.79,1.43,1.7,1.87,2.75.45,1.04.67,2.17.67,3.38s-.24,2.35-.71,3.42-1.1,1.99-1.9,2.77l1.7,2.08-2.67.76Zm-5.18-3.13c.41,0,.81-.04,1.18-.13.37-.09.72-.22,1.04-.39l-1.98-2.41,2.67-.79,1.41,1.72c.45-.51.79-1.1,1.04-1.77.25-.67.37-1.38.37-2.12,0-.84-.14-1.62-.43-2.34-.29-.72-.69-1.34-1.22-1.87s-1.13-.95-1.83-1.24c-.69-.29-1.45-.44-2.26-.44s-1.57.15-2.27.44c-.7.29-1.31.71-1.83,1.24-.52.53-.92,1.16-1.22,1.87-.29.72-.44,1.5-.44,2.34s.15,1.6.44,2.33c.29.72.7,1.35,1.22,1.89.52.53,1.13.95,1.83,1.24.7.29,1.46.44,2.27.44Z"/>
      <path class="cls-6" d="m195.2,180.73c-1.24,0-2.4-.22-3.46-.66-1.07-.44-2-1.05-2.81-1.84-.8-.79-1.43-1.7-1.88-2.75-.45-1.04-.67-2.17-.67-3.38s.22-2.34.67-3.38c.45-1.04,1.07-1.96,1.88-2.75.8-.79,1.74-1.4,2.82-1.84s2.22-.66,3.45-.66c.89,0,1.76.12,2.61.36.85.24,1.64.58,2.36,1.03.72.45,1.35.99,1.87,1.62l-1.98,1.98c-.62-.75-1.35-1.31-2.2-1.7-.84-.38-1.74-.57-2.67-.57-.83,0-1.59.15-2.29.44-.7.29-1.31.71-1.84,1.24s-.94,1.16-1.23,1.87c-.29.72-.44,1.5-.44,2.34s.15,1.6.44,2.32c.29.72.71,1.34,1.24,1.87.53.53,1.16.95,1.88,1.24.72.29,1.5.44,2.34.44.92,0,1.79-.19,2.61-.56.82-.37,1.52-.91,2.11-1.61l1.93,1.93c-.53.6-1.15,1.13-1.88,1.59-.72.45-1.5.8-2.34,1.04-.84.24-1.68.36-2.54.36Z"/>
    </g>
  </g>
</svg>