<?xml version="1.0" encoding="UTF-8"?>
<svg id="Layer_2" data-name="Layer 2" xmlns="http://www.w3.org/2000/svg" viewBox="0 0 886.3 200">
  <defs>
    <style>
      .cls-1 {
        fill: #a69979;
      }

      .cls-2 {
        fill: #3d3a32;
      }

      .cls-3 {
        fill: #605a49;
      }

      .cls-4 {
        fill: #837a61;
      }

      .cls-5 {
        fill: #ecd9a8;
      }

      .cls-6 {
        fill: #c9b990;
      }
    </style>
  </defs>
  <g id="Layer_1-2" data-name="Layer 1">
    <g>
      <path class="cls-2" d="m159.57,101.99c-1.04,31.4-26.29,56.65-57.68,57.68l-34.78,34.78c10.3,3.59,21.37,5.55,32.9,5.55.34,0,.69,0,1.03-.01l98.96-98.96c0-.34.01-.68.01-1.03,0-11.53-1.96-22.59-5.55-32.9l-34.88,34.88Z"/>
      <path class="cls-3" d="m159.62,99.98c0,.34,0,.67-.01,1.01l34.6-34.6c-3.35-9.38-8.05-18.11-13.88-25.96l-29.06,29.06c5.31,8.92,8.36,19.34,8.36,30.48Z"/>
      <path class="cls-3" d="m99.89,159.72c-11.14,0-21.56-3.05-30.48-8.36l-28.97,28.97c7.85,5.83,16.58,10.53,25.96,13.88l34.5-34.5c-.34,0-.67.01-1.01.01Z"/>
      <path class="cls-4" d="m150.91,68.91l29.01-29.01c-5.57-7.39-12.14-13.98-19.5-19.57l-28.95,28.95c7.91,4.94,14.58,11.67,19.44,19.63Z"/>
      <path class="cls-4" d="m49.18,131.56l-28.86,28.86c5.6,7.37,12.18,13.94,19.57,19.5l28.92-28.92c-7.96-4.86-14.7-11.53-19.63-19.44Z"/>
      <path class="cls-1" d="m99.89,40.25c11.35,0,21.96,3.17,31,8.66l29-29c-7.83-5.86-16.55-10.59-25.91-13.97l-34.32,34.32c.08,0,.16,0,.23,0Z"/>
      <path class="cls-1" d="m40.15,99.98c0-.08,0-.16,0-.23L5.93,133.97c3.38,9.37,8.11,18.09,13.98,25.91l28.9-28.9c-5.5-9.04-8.66-19.65-8.66-31Z"/>
      <path class="cls-6" d="m98.68,40.27L133.28,5.68c-10.41-3.67-21.61-5.68-33.28-5.68-.16,0-.31,0-.47,0L0,99.53c0,.16,0,.31,0,.47,0,11.67,2.01,22.87,5.68,33.28l34.5-34.5c.64-32.03,26.47-57.87,58.5-58.5Z"/>
      <path class="cls-5" d="m.02,98.57L98.57.02C44.48.78.78,44.48.02,98.57Z"/>
    </g>
    <g>
      <path class="cls-2" d="m234,147.89v-72.8h12.79v30.26h36.3v-30.26h12.9v72.8h-12.9v-30.78h-36.3v30.78h-12.79Z"/>
      <path class="cls-2" d="m310.85,147.89v-72.8h54.7v11.23h-41.91v19.34h27.56v10.92h-27.56v20.07h42.33v11.23h-55.12Z"/>
      <path class="cls-2" d="m377.83,147.89v-72.8h12.79v72.8h-12.79Z"/>
      <path class="cls-2" d="m405.59,147.89v-72.8h16.74l21.53,43.16,21.42-43.16h16.74v72.8h-12.06v-56.78l-26.31,51.58-26.21-51.58v56.78h-11.86Z"/>
      <path class="cls-2" d="m497.01,147.89v-72.8h26.73c5.48,0,10.54.92,15.18,2.76,4.64,1.84,8.7,4.4,12.17,7.7,3.47,3.29,6.17,7.16,8.11,11.6,1.94,4.44,2.91,9.26,2.91,14.46s-.97,10-2.91,14.4c-1.94,4.4-4.65,8.23-8.11,11.49-3.47,3.26-7.52,5.81-12.17,7.64-4.65,1.84-9.71,2.76-15.18,2.76h-26.73Zm12.79-11.44h13.94c3.54,0,6.83-.62,9.88-1.87,3.05-1.25,5.72-3.02,8.01-5.3,2.29-2.29,4.07-4.92,5.36-7.9,1.28-2.98,1.92-6.24,1.92-9.78s-.64-6.83-1.92-9.88c-1.28-3.05-3.07-5.7-5.36-7.96-2.29-2.25-4.96-4.02-8.01-5.3-3.05-1.28-6.34-1.92-9.88-1.92h-13.94v49.92Z"/>
      <path class="cls-2" d="m563.15,147.89l29.95-72.8h14.98l29.74,72.8h-13.94l-8.01-20.28h-31.41l-8.01,20.28h-13.31Zm25.48-30.78h23.3l-11.65-29.54-11.65,29.54Z"/>
      <path class="cls-2" d="m645.52,147.89v-72.8h12.79v61.36h40.98v11.44h-53.77Z"/>
      <path class="cls-2" d="m710.83,147.89v-72.8h12.79v61.36h40.98v11.44h-53.77Z"/>
    </g>
    <g>
      <path class="cls-2" d="m817.14,149.54l-3.73-4.5c-1.92.98-3.97,1.76-6.17,2.33-2.2.57-4.52.85-6.95.85-3.99,0-7.71-.71-11.18-2.13-3.47-1.42-6.5-3.42-9.08-5.98-2.59-2.56-4.61-5.54-6.05-8.93-1.45-3.39-2.17-7.05-2.17-10.98s.72-7.59,2.17-10.98c1.45-3.39,3.47-6.36,6.05-8.93,2.59-2.56,5.61-4.55,9.08-5.98,3.47-1.42,7.19-2.13,11.18-2.13s7.7.71,11.14,2.13c3.44,1.42,6.47,3.42,9.08,5.98,2.61,2.56,4.64,5.54,6.09,8.93,1.45,3.39,2.17,7.05,2.17,10.98s-.76,7.63-2.29,11.1c-1.53,3.47-3.58,6.47-6.17,9l5.51,6.75-8.69,2.48Zm-16.84-10.17c1.35,0,2.63-.14,3.84-.43,1.21-.28,2.34-.71,3.38-1.28l-6.44-7.84,8.69-2.56,4.58,5.59c1.45-1.66,2.57-3.57,3.38-5.74.8-2.17,1.2-4.48,1.2-6.91,0-2.74-.47-5.28-1.4-7.61-.93-2.33-2.25-4.36-3.96-6.09-1.71-1.73-3.69-3.08-5.94-4.04-2.25-.96-4.7-1.44-7.33-1.44s-5.1.48-7.37,1.44c-2.28.96-4.26,2.3-5.94,4.04-1.68,1.73-3,3.76-3.96,6.09-.96,2.33-1.44,4.86-1.44,7.61s.48,5.21,1.44,7.57c.96,2.36,2.28,4.4,3.96,6.13,1.68,1.73,3.66,3.08,5.94,4.04,2.28.96,4.74,1.44,7.37,1.44Z"/>
      <path class="cls-2" d="m864.02,148.22c-4.04,0-7.79-.71-11.25-2.13-3.47-1.42-6.51-3.42-9.12-5.98-2.61-2.56-4.65-5.54-6.09-8.93-1.45-3.39-2.17-7.05-2.17-10.98s.72-7.59,2.17-10.98c1.45-3.39,3.48-6.36,6.09-8.93,2.61-2.56,5.67-4.55,9.16-5.98,3.49-1.42,7.23-2.13,11.22-2.13,2.9,0,5.73.39,8.5,1.16,2.77.78,5.33,1.89,7.68,3.34,2.35,1.45,4.38,3.21,6.09,5.28l-6.44,6.44c-2.02-2.43-4.4-4.27-7.14-5.51-2.74-1.24-5.64-1.86-8.69-1.86-2.69,0-5.17.48-7.45,1.44-2.28.96-4.27,2.3-5.98,4.04-1.71,1.73-3.04,3.76-4,6.09-.96,2.33-1.44,4.86-1.44,7.61s.48,5.2,1.44,7.53c.96,2.33,2.3,4.36,4.04,6.09,1.73,1.73,3.76,3.08,6.09,4.04,2.33.96,4.86,1.44,7.61,1.44,3,0,5.83-.61,8.5-1.82,2.66-1.22,4.95-2.96,6.87-5.24l6.29,6.29c-1.71,1.97-3.74,3.69-6.09,5.16-2.36,1.47-4.89,2.6-7.61,3.38s-5.47,1.16-8.27,1.16Z"/>
    </g>
  </g>
</svg>