<?xml version="1.0" encoding="UTF-8"?>
<svg id="Layer_2" data-name="Layer 2" xmlns="http://www.w3.org/2000/svg" viewBox="0 0 204.99 189.07">
  <defs>
    <style>
      .cls-1 {
        fill: #a69979;
      }

      .cls-2 {
        font-size: 31.99px;
      }

      .cls-2, .cls-3 {
        fill: #ccc;
        font-family: RedHatDisplay-Bold, 'Red Hat Display';
        font-variation-settings: 'wght' 700;
        font-weight: 700;
      }

      .cls-4 {
        fill: #3d3a32;
      }

      .cls-5 {
        fill: #605a49;
      }

      .cls-3 {
        font-size: 23.88px;
        letter-spacing: 0em;
      }

      .cls-6 {
        letter-spacing: -.03em;
      }

      .cls-7 {
        fill: #837a61;
      }

      .cls-8 {
        fill: #ecd9a8;
      }

      .cls-9 {
        fill: #c9b990;
      }

      .cls-10 {
        letter-spacing: 0em;
      }
    </style>
  </defs>
  <g id="Layer_1-2" data-name="Layer 1">
    <g>
      <path class="cls-4" d="m143.43,71.39c-.73,21.98-18.4,39.65-40.38,40.38l-24.35,24.35c7.21,2.51,14.96,3.88,23.03,3.88.24,0,.48,0,.72,0l69.27-69.27c0-.24,0-.48,0-.72,0-8.07-1.37-15.81-3.88-23.03l-24.42,24.42Z"/>
      <path class="cls-5" d="m143.47,69.99c0,.24,0,.47,0,.71l24.22-24.22c-2.34-6.56-5.64-12.68-9.72-18.17l-20.34,20.34c3.71,6.25,5.85,13.54,5.85,21.34Z"/>
      <path class="cls-5" d="m101.65,111.81c-7.8,0-15.09-2.14-21.34-5.85l-20.28,20.28c5.49,4.08,11.61,7.37,18.17,9.72l24.15-24.15c-.24,0-.47,0-.71,0Z"/>
      <path class="cls-7" d="m137.37,48.24l20.31-20.31c-3.9-5.17-8.5-9.79-13.65-13.7l-20.27,20.27c5.54,3.46,10.21,8.17,13.61,13.74Z"/>
      <path class="cls-7" d="m66.15,92.09l-20.2,20.2c3.92,5.16,8.53,9.76,13.7,13.65l20.24-20.24c-5.57-3.4-10.29-8.07-13.74-13.61Z"/>
      <path class="cls-1" d="m101.65,28.17c7.94,0,15.37,2.22,21.7,6.06l20.3-20.3c-5.48-4.1-11.58-7.41-18.14-9.78l-24.02,24.02c.05,0,.11,0,.16,0Z"/>
      <path class="cls-1" d="m59.83,69.99c0-.05,0-.11,0-.16l-23.95,23.95c2.37,6.56,5.68,12.66,9.78,18.14l20.23-20.23c-3.85-6.33-6.06-13.75-6.06-21.7Z"/>
      <path class="cls-9" d="m100.81,28.19L125.02,3.98c-7.29-2.57-15.13-3.98-23.29-3.98-.11,0-.22,0-.33,0L31.73,69.67c0,.11,0,.22,0,.33,0,8.17,1.4,16.01,3.98,23.29l24.15-24.15c.45-22.42,18.53-40.51,40.95-40.95Z"/>
      <path class="cls-8" d="m31.74,69L100.72.02C62.86.55,32.28,31.13,31.74,69Z"/>
    </g>
    <text class="cls-2" transform="translate(0 180.63)"><tspan class="cls-10" x="0" y="0">HEIM</tspan><tspan class="cls-6" x="80.91" y="0">D</tspan><tspan class="cls-10" x="103.46" y="0">ALL</tspan></text>
    <text class="cls-3" transform="translate(168.07 180.47)"><tspan x="0" y="0">QC</tspan></text>
  </g>
</svg>